<svg width="23" height="16" viewBox="0 0 23 16" fill="none" xmlns="http://www.w3.org/2000/svg">
<path id="Vector" d="M22.5318 2.50865C21.6954 2.8117 20.8042 3.01258 19.8751 3.11011C20.8309 2.63869 21.5604 1.8979 21.9034 1.00499C21.0122 1.4439 20.0283 1.75392 18.9796 1.92693C18.1334 1.18265 16.9274 0.72168 15.6117 0.72168C13.059 0.72168 11.0039 2.43318 11.0039 4.53133C11.0039 4.83322 11.0348 5.1235 11.1107 5.39985C7.27749 5.24542 3.88563 3.72783 1.60705 1.41603C1.20924 1.98614 0.975904 2.6387 0.975904 3.34117C0.975904 4.66021 1.79822 5.82946 3.02396 6.5064C2.28317 6.49479 1.55644 6.31714 0.940762 6.0373C0.940762 6.04892 0.940762 6.06401 0.940762 6.0791C0.940762 7.92994 2.539 9.46726 4.63485 9.82141C4.25953 9.90617 3.85049 9.94681 3.42598 9.94681C3.13079 9.94681 2.83279 9.93287 2.55306 9.88178C3.15047 11.3901 4.8457 12.499 6.86142 12.535C5.2927 13.5486 3.30087 14.1594 1.14458 14.1594C0.76646 14.1594 0.403799 14.1454 0.0411377 14.1071C2.08357 15.1951 4.50412 15.8163 7.11444 15.8163C15.599 15.8163 20.2377 10.0107 20.2377 4.97836C20.2377 4.81 20.2307 4.64744 20.2208 4.48604C21.1359 3.9496 21.9048 3.27964 22.5318 2.50865Z" fill="#080809"/>
</svg>
